<?xml version="1.0" standalone="no"?>
<!DOCTYPE svg PUBLIC "-//W3C//DTD SVG 20010904//EN"
 "http://www.w3.org/TR/2001/REC-SVG-20010904/DTD/svg10.dtd">
<svg version="1.0" xmlns="http://www.w3.org/2000/svg"
 width="300.000000pt" height="300.000000pt" viewBox="0 0 300.000000 300.000000"
 preserveAspectRatio="xMidYMid meet">
<metadata>
Created by potrace 1.10, written by Peter Selinger 2001-2011
</metadata>
<g transform="translate(0.000000,300.000000) scale(0.100000,-0.100000)"
fill="#000000" stroke="none">
<path d="M435 2199 c-4 -6 -4 -13 -1 -16 3 -4 6 -1 6 5 0 7 3 12 8 12 4 0 7
-170 7 -377 l0 -378 390 -3 390 -2 -3 -298 c-1 -163 -4 -302 -6 -308 -5 -14
-102 -18 -111 -4 -10 17 -13 90 -3 96 4 3 6 10 3 15 -3 5 -7 115 -8 244 -1
151 -6 234 -12 232 -6 -1 -10 -110 -9 -305 l1 -302 -21 7 c-11 4 -148 8 -303
8 -155 0 -284 3 -287 6 -11 11 -9 111 3 118 7 4 140 7 297 7 156 -1 283 2 282
6 -2 4 -137 10 -300 13 l-298 5 -5 -23 c-3 -12 -5 -50 -3 -84 l3 -61 393 -4
c318 -4 395 -2 404 9 14 17 6 769 -9 784 -6 6 -123 10 -322 9 l-311 -1 0 211
0 210 490 0 490 0 2 -612 3 -613 80 0 80 0 3 608 c1 403 -1 607 -8 607 -12 0
-11 54 -13 -626 l-2 -560 -30 -3 c-33 -3 -65 -4 -80 -2 -7 1 -11 186 -11 579
0 317 -4 587 -8 600 l-7 22 315 0 316 0 0 -284 c0 -232 3 -286 14 -295 9 -7
41 -11 83 -9 l68 3 0 375 0 375 -964 2 c-530 1 -966 5 -969 8 -9 8 -20 6 -27
-6z m1935 -66 c4 -298 4 -656 0 -662 -6 -8 -96 -9 -104 0 -3 3 -6 127 -6 275
-1 148 -4 274 -8 280 -17 26 -58 30 -277 27 -126 -2 -266 -3 -310 -2 -44 1
-297 2 -562 3 -446 3 -484 1 -498 -14 -22 -24 -27 -408 -6 -433 12 -15 51 -17
320 -19 l306 -3 3 -62 3 -63 -43 -1 c-24 -1 -54 0 -68 1 -14 1 -164 2 -335 3
l-310 2 -1 345 c-1 190 1 348 3 353 2 4 429 7 949 7 l944 0 0 -37z"/>
<path d="M824 1885 c-41 -17 -58 -58 -40 -93 21 -41 58 -58 94 -43 27 11 52
46 52 72 0 19 -39 66 -58 71 -11 3 -32 0 -48 -7z m68 -37 c31 -50 -35 -104
-76 -62 -34 34 -6 88 41 79 15 -2 30 -10 35 -17z"/>
<path d="M2213 1353 c-118 -67 -160 -207 -96 -324 47 -87 158 -141 243 -118
71 19 125 58 160 115 28 47 31 59 29 123 -2 59 -7 80 -29 114 -32 50 -62 76
-114 100 -53 25 -139 20 -193 -10z m170 -9 c55 -19 112 -70 133 -119 30 -72 7
-181 -49 -233 -34 -32 -114 -60 -162 -58 -66 4 -165 62 -149 88 4 6 3 8 -3 5
-17 -11 -43 57 -43 112 0 122 86 213 206 220 11 0 42 -6 67 -15z"/>
<path d="M2238 1279 c-52 -27 -82 -87 -76 -149 6 -61 39 -107 95 -132 39 -17
50 -18 95 -8 59 15 103 55 119 111 18 58 4 105 -46 155 -42 41 -48 44 -97 44
-33 -1 -67 -8 -90 -21z m162 -25 c59 -50 73 -105 44 -167 -46 -97 -187 -105
-243 -14 -57 93 9 207 121 207 36 0 54 -6 78 -26z"/>
</g>
</svg>
